<svg width="29" height="29" viewBox="0 0 29 29" fill="none" xmlns="http://www.w3.org/2000/svg">
<path d="M14.785 0.785004C7.0523 0.785004 0.785034 7.05226 0.785034 14.785C0.785034 22.5177 7.0523 28.785 14.785 28.785C22.5178 28.785 28.785 22.5177 28.785 14.785C28.785 7.05226 22.5178 0.785004 14.785 0.785004ZM14.785 26.883C8.11243 26.883 2.68704 21.4576 2.68704 14.785C2.68704 8.1124 8.11243 2.68701 14.785 2.68701C21.4576 2.68701 26.883 8.1124 26.883 14.785C26.883 21.4576 21.4576 26.883 14.785 26.883Z" fill="#A1A1A1"/>
<path d="M15.0345 15.5957C17.4353 15.5957 19.3685 13.6313 19.3685 11.2616C19.3685 8.86073 17.4042 6.89636 15.0345 6.89636C12.6336 6.89636 10.7004 8.86073 10.7004 11.2616C10.7004 13.6313 12.6647 15.5957 15.0345 15.5957ZM15.0345 8.79837C16.3752 8.79837 17.4665 9.88968 17.4665 11.2304C17.4665 12.5712 16.3752 13.6625 15.0345 13.6625C13.6937 13.6625 12.6024 12.5712 12.6024 11.2304C12.6336 9.88968 13.6937 8.79837 15.0345 8.79837Z" fill="#A1A1A1"/>
<path d="M23.3597 20.2104C22.4866 17.9342 20.7717 16.687 18.3084 16.5311C18.0902 16.5311 17.8407 16.5935 17.6848 16.7182C16.8741 17.2794 15.9699 17.5912 15.0345 17.5912C14.0991 17.5912 13.1949 17.2794 12.4153 16.7182C12.2283 16.5935 12.01 16.5311 11.7917 16.5311C9.2973 16.687 7.58238 17.9342 6.70933 20.2416C6.52225 20.7405 6.77169 21.3017 7.27058 21.4888C7.3953 21.52 7.48884 21.5511 7.61356 21.5511C7.98773 21.5511 8.36189 21.3017 8.51779 20.9275C9.07904 19.4309 10.0456 18.6514 11.6047 18.4643C12.6336 19.1503 13.8185 19.4932 15.0345 19.4932C16.2505 19.4932 17.4354 19.1503 18.4643 18.4643C19.9922 18.6514 20.9588 19.3997 21.5512 20.8964C21.7383 21.3952 22.2995 21.6447 22.7984 21.4576C23.2973 21.2393 23.5467 20.7093 23.3597 20.2104Z" fill="#A1A1A1"/>
</svg>
