<?xml version="1.0" encoding="utf-8"?>
<!-- Generator: Adobe Illustrator 21.0.2, SVG Export Plug-In . SVG Version: 6.00 Build 0)  -->
<svg version="1.1" id="Layer_1" xmlns="http://www.w3.org/2000/svg" xmlns:xlink="http://www.w3.org/1999/xlink" x="0px" y="0px"
	 viewBox="0 0 100 35" style="enable-background:new 0 0 100 35;" xml:space="preserve">
<style type="text/css">
	.st0{fill:#FFFFFF;}
</style>
<g>
	<g>
		<path class="st0" d="M47.7,3.7c-0.8,9.8-1.5,19.6-2.3,29.4c-0.1,0-0.1,0-0.2,0c-0.4-4.6-0.7-9.2-1.1-13.8
			c-0.1-1.7-0.2-3.4-0.3-5.1c-0.1-1.3-0.6-2-2-2.2C29.5,9.4,17.3,6.8,5.1,4.2C5,4.1,5,4.1,5,4s0-0.1,0.1-0.1
			C11,4.7,16.9,5.5,22.8,6.4C29,7.3,35.1,8.2,41.3,9.1c1.6,0.2,2.6-0.1,3.4-1.7c0.8-1.6,1.8-3.1,2.7-4.7C47.8,2.8,47.7,3.3,47.7,3.7
			z"/>
		<path class="st0" d="M52.6,3.7c0.8,9.8,1.5,19.6,2.3,29.4c0.1,0,0.1,0,0.2,0c0.4-4.6,0.7-9.2,1.1-13.8c0.1-1.7,0.2-3.4,0.3-5.1
			c0.1-1.3,0.6-2,2-2.2c12.2-2.5,24.4-5.1,36.6-7.7c0.1-0.1,0.1-0.1,0.1-0.2c0-0.1,0-0.1-0.1-0.1c-5.9,0.8-11.8,1.6-17.7,2.5
			C71.3,7.3,65.1,8.2,59,9.1c-1.6,0.2-2.6-0.1-3.4-1.7c-0.8-1.6-1.8-3.1-2.7-4.7C52.4,2.7,52.6,3.3,52.6,3.7z"/>
	</g>
	<rect x="47.5" y="19" class="st0" width="5.3" height="2.3"/>
</g>
</svg>
